{"title":"[ShepardTDS] Ef - A Tale of Memories Dual Audio [720p 8-bit x265","uid":12994011,"size":2410950930,"categoryP":"video","categoryS":"tv_shows","magnet":"?xt=urn:btih:c1ea8256fefc124989a405bb2de730aceede15a2&amp;dn=%5BShepardTDS%5D+Ef+-+A+Tale+of+Memories+Dual+Audio+%5B720p+8-bit+x265&amp;tr=udp%3A%2F%2Ftracker.leechers-paradise.org%3A6969&amp;tr=udp%3A%2F%2Fzer0day.ch%3A1337&amp;tr=udp%3A%2F%2Fopen.demonii.com%3A1337&amp;tr=udp%3A%2F%2Ftracker.coppersurfer.tk%3A6969&amp;tr=udp%3A%2F%2Fexodus.desync.com%3A6969","seeders":0,"leechers":1,"uploader":"ShepardTDS","files":19,"time":1450145098,"description":"http://extraimago.com/images/2015/12/15/31983_front.jpg\r\n\r\nConstant Quality encoding.\r\nVariable Bit rates\r\nBlu-Ray Source\r\nED and OP included\r\n \nhttp://extraimago.com/images/2015/12/15/sample1.jpg\r\n \nhttp://extraimago.com/images/2015/12/15/sample2.jpg\r\n\r\nGeneral\r\n\r\nFormat : Matroska\r\nFile size : 166 MiB-201 MiB\r\nDuration : 23mn 43s\r\nOverall bit rate : 978 Kbps-1,191 Kbps\r\nEncoded date : UTC 2015-11-29 07:11:34\r\nWriting application : mkvmerge v7.7.0 ('Six Voices') 32bit built on Feb 28 2015 23:23:00\r\nWriting library : libebml v1.3.1 + libmatroska v1.4.2\r\n\r\nVideo\r\nID : 1\r\nFormat : V_MPEGH/ISO/HEVC\r\nCodec ID : V_MPEGH/ISO/HEVC\r\nDuration : 23mn 43s\r\nBit rate : 575 Kbps-784 Kbps\r\nWidth : 1 280 pixels\r\nHeight : 720 pixels\r\nDisplay aspect ratio : 16:9\r\nFrame rate : 23.976 fps\r\nBits/(Pixel*Frame) : 0.026\r\nStream size : 97.5 MiB (59%)\r\n\r\nAudio #1\r\nID : 2\r\nFormat : AC-3\r\nFormat/Info : Audio Coding 3\r\nMode extension : CM (complete main)\r\nCodec ID : A_AC3\r\nDuration : 23mn 43s\r\nBit rate mode : Constant\r\nBit rate : 192 Kbps\r\nChannel(s) : 2 channels\r\nChannel positions : Front: L R\r\nSampling rate : 48.0 KHz\r\nBit depth : 16 bits\r\nCompression mode : Lossy\r\nStream size : 32.6 MiB (20%)\r\nLanguage : English\r\n\r\nAudio #2\r\nID : 3\r\nFormat : AC-3\r\nFormat/Info : Audio Coding 3\r\nMode extension : CM (complete main)\r\nCodec ID : A_AC3\r\nDuration : 23mn 43s\r\nBit rate mode : Constant\r\nBit rate : 192 Kbps\r\nChannel(s) : 2 channels\r\nChannel positions : Front: L R\r\nSampling rate : 48.0 KHz\r\nBit depth : 16 bits\r\nCompression mode : Lossy\r\nStream size : 32.6 MiB (20%)\r\nLanguage : Japanese\r\n\r\nText #1\r\nID : 4\r\nFormat : ASS\r\nCodec ID : S_TEXT/ASS\r\nCodec ID/Info : Advanced Sub Station Alpha\r\nCompression mode : Lossless\r\nTitle : Signs/Songs\r\nLanguage : English\r\n\r\nText #2\r\nID : 5\r\nFormat : ASS\r\nCodec ID : S_TEXT/ASS\r\nCodec ID/Info : Advanced Sub Station Alpha\r\nCompression mode : Lossless\r\nTitle : Dialogue\r\nLanguage : English\r\n\r\nMenu\r\n00:00:00.000 : en:Prologue\r\n00:01:28.088 : en:Credits\r\n00:02:58.178 : en:Part 1\r\n00:12:23.743 : en:Part 2\r\n00:21:56.315 : en:Ending\r\n00:23:26.405 : en:Preview","torrent":{"xt":"urn:btih:c1ea8256fefc124989a405bb2de730aceede15a2","amp;dn":"%5BShepardTDS%5D+Ef+-+A+Tale+of+Memories+Dual+Audio+%5B720p+8-bit+x265","amp;tr":["udp%3A%2F%2Ftracker.leechers-paradise.org%3A6969","udp%3A%2F%2Fzer0day.ch%3A1337","udp%3A%2F%2Fopen.demonii.com%3A1337","udp%3A%2F%2Ftracker.coppersurfer.tk%3A6969","udp%3A%2F%2Fexodus.desync.com%3A6969"],"infoHash":"c1ea8256fefc124989a405bb2de730aceede15a2","infoHashBuffer":{"type":"Buffer","data":[193,234,130,86,254,252,18,73,137,164,5,187,45,231,48,172,238,222,21,162]},"announce":[],"urlList":[]}}